<svg version="1.1" id="Layer_1" xmlns="http://www.w3.org/2000/svg" xmlns:xlink="http://www.w3.org/1999/xlink" x="0px" y="0px"
	 width="32" height="30px" viewBox="0 0 1600 900" xml:space="preserve">
<path fill="#000000" opacity="0.000000" stroke="none" 
	d="
M924.000000,901.000000 
	C616.000000,901.000000 308.500000,901.000000 1.000000,901.000000 
	C1.000000,601.000000 1.000000,301.000000 1.000000,1.000000 
	C534.333313,1.000000 1067.666626,1.000000 1601.000000,1.000000 
	C1601.000000,301.000000 1601.000000,601.000000 1601.000000,901.000000 
	C1375.500000,901.000000 1150.000000,901.000000 924.000000,901.000000 
M615.061890,425.989685 
	C582.140564,425.989685 549.219238,425.989685 516.236084,425.989685 
	C516.236084,429.216492 516.236084,431.952423 516.236084,434.711914 
	C673.918518,434.711914 831.364685,434.711914 988.708557,434.711914 
	C988.708557,431.678345 988.708557,428.940063 988.708557,425.853973 
	C979.949585,425.853973 971.480225,425.853973 963.156006,425.150238 
	C963.826416,424.759277 964.450928,424.207214 965.174011,424.001282 
	C978.201599,420.290955 986.992432,408.759766 986.994751,395.311218 
	C986.996460,385.314911 986.710571,375.305817 987.160339,365.329773 
	C987.304077,362.141113 988.774719,358.559906 990.747070,356.019012 
	C993.288818,352.744598 994.254150,349.850830 992.526794,346.061371 
	C990.872253,342.431702 988.097961,340.845276 984.180786,340.993958 
	C982.374451,341.062531 980.563416,341.005676 977.424072,341.005676 
	C986.995117,334.504913 986.995056,334.504913 986.995056,324.423920 
	C986.995056,322.258057 987.059448,320.089966 986.984314,317.926697 
	C986.593872,306.693634 981.188599,298.671997 971.708435,292.770630 
	C963.691284,287.780060 954.994263,289.577179 946.470215,288.940491 
	C931.967957,287.857300 918.029053,301.870728 917.063721,315.321045 
	C916.387085,324.748291 916.347107,334.220825 915.994141,343.672089 
	C915.932617,345.319366 915.729248,346.961334 915.591370,348.605774 
	C915.033508,348.627899 914.475708,348.650024 913.917847,348.672150 
	C913.610291,346.900696 913.051941,345.131439 913.036682,343.357452 
	C912.950623,333.361908 913.085815,323.363983 912.947205,313.369598 
	C912.896790,309.732727 913.313660,306.709778 916.302979,303.999390 
	C919.594360,301.015015 920.118042,296.536926 917.640686,293.093475 
	C916.111206,290.967438 912.585510,289.346008 909.857483,289.186890 
	C901.389465,288.692932 892.826721,288.461578 884.394348,289.199066 
	C878.842896,289.684540 873.565979,289.691833 867.970703,289.422333 
	C846.587952,288.392426 825.125977,288.975067 803.693787,289.027924 
	C798.158936,289.041565 795.658447,291.520111 794.982361,297.126221 
	C794.877441,297.996033 794.504761,298.833618 794.255981,299.686096 
	C793.862732,299.910980 793.469482,300.135834 793.076233,300.360687 
	C792.715210,299.603760 792.496094,298.726654 791.972046,298.107666 
	C782.195496,286.559174 756.773315,286.292938 746.762207,294.068573 
	C738.947388,300.138336 734.657776,308.069672 733.661682,317.731934 
	C732.449280,329.493011 731.337708,341.493164 737.806702,352.147064 
	C740.539856,356.648346 744.782471,360.437622 748.932068,363.823608 
	C754.359985,368.252533 754.210388,371.932526 748.369385,375.437286 
	C742.758545,378.803955 737.439392,382.732391 732.329712,386.834595 
	C728.332458,390.043671 724.571533,392.782288 718.973022,392.130859 
	C716.037781,391.789276 714.858093,391.112244 714.942322,388.039642 
	C715.120239,381.546936 714.923401,375.044464 715.054993,368.549530 
	C715.082764,367.179443 715.475159,365.464294 716.356201,364.522339 
	C721.304993,359.231934 721.421875,354.864868 716.818726,349.194153 
	C715.778809,347.913055 715.095093,345.954620 715.073669,344.297363 
	C714.925354,332.803528 714.908508,321.305542 715.085815,309.812531 
	C715.113525,308.022400 715.900879,305.829102 717.108826,304.552826 
	C720.260986,301.222260 721.026184,297.263428 719.446655,293.488983 
	C717.812988,289.585449 713.856873,288.890106 709.704529,288.947266 
	C697.630737,289.113556 685.553223,289.007507 673.477173,289.007568 
	C655.150635,289.007629 636.823059,289.109375 618.498230,288.931671 
	C614.161316,288.889618 611.979370,291.569733 610.504089,294.594604 
	C609.082825,297.508820 609.558044,300.821411 612.584106,303.074188 
	C615.371033,305.148926 616.141602,307.884949 616.077332,311.337280 
	C615.878845,321.996307 616.143250,332.664642 615.892700,343.321472 
	C615.840088,345.558624 614.834778,348.135590 613.445435,349.912384 
	C608.942810,355.670563 608.935059,358.235962 613.301453,363.944458 
	C614.764893,365.857788 615.823242,368.589294 615.886047,370.977844 
	C616.161621,381.466736 615.892273,391.968842 616.069641,402.461975 
	C616.127014,405.858215 615.269836,408.389557 612.797729,410.855286 
	C608.407288,415.234314 609.147644,420.595642 614.096008,423.920105 
	C614.829163,424.412689 615.363037,425.201965 615.061890,425.989685 
M532.765198,410.504272 
	C531.096008,412.460236 529.426880,414.416199 527.206299,417.018311 
	C537.700989,417.018311 547.245544,417.018311 556.584290,417.018311 
	C554.916870,413.951965 552.070374,411.074463 551.949768,408.086884 
	C551.432739,395.280640 551.624695,382.440186 551.867004,369.618042 
	C551.889404,368.433868 553.998169,366.435638 555.303772,366.288940 
	C559.252014,365.845306 563.290405,366.289307 567.277222,366.077606 
	C570.739502,365.893738 572.001465,367.172943 571.930054,370.678772 
	C571.750305,379.504089 571.903259,388.335632 571.860901,397.164398 
	C571.827332,404.151947 573.544556,411.644562 564.746399,417.006561 
	C576.065125,417.006561 585.623840,417.006561 595.182556,417.006561 
	C595.599487,416.770630 596.016418,416.534698 596.433411,416.298767 
	C589.423523,412.453674 590.222778,406.305237 590.291199,400.322174 
	C590.373169,393.159973 590.150208,385.991547 590.354065,378.834259 
	C590.573730,371.120270 587.892395,362.645233 594.931580,357.927368 
	C593.156311,353.531128 590.641174,350.047180 590.504578,346.472412 
	C590.008911,333.497803 590.168945,320.489807 590.438904,307.501770 
	C590.488647,305.106812 592.085022,302.690704 593.192139,300.392517 
	C593.779480,299.173248 594.849060,298.186279 596.024231,296.680054 
	C585.616760,296.680054 576.027893,296.680054 566.460876,296.680054 
	C568.424866,300.405670 571.471680,303.607147 571.630371,306.945862 
	C572.222778,319.411560 571.789612,331.923126 571.924072,344.415497 
	C571.958435,347.609741 570.594299,348.443665 567.726746,348.338623 
	C563.900513,348.198456 560.053223,348.118286 556.237244,348.361145 
	C552.789429,348.580566 551.567078,347.420776 551.634521,343.866699 
	C551.833435,333.375641 551.720581,322.878357 551.690735,312.383606 
	C551.685913,310.684998 551.482849,308.986938 551.399353,307.713837 
	C548.480225,308.821747 546.266846,309.849976 543.946228,310.488678 
	C541.716431,311.102386 539.383667,311.373108 537.081299,311.684418 
	C534.377136,312.050110 533.148193,313.269440 533.228760,316.234467 
	C533.423401,323.392303 533.335266,330.559387 533.277893,337.722046 
	C533.221741,344.742737 534.946167,352.258789 528.226257,356.599457 
	C530.134766,360.240967 532.973083,363.198120 533.054077,366.229004 
	C533.441040,380.702728 533.079712,395.196411 532.765198,410.504272 
M538.354065,300.793854 
	C545.729614,299.066956 552.424072,296.227753 556.827759,289.587280 
	C557.257080,288.939972 557.775696,288.228363 558.430115,287.874146 
	C562.360352,285.746826 561.084839,282.702850 560.400330,279.637482 
	C549.168030,290.159271 537.601074,298.279083 521.132080,291.775696 
	C521.472656,295.843811 519.142151,301.225983 526.620056,301.127441 
	C530.255127,301.079559 533.889038,300.952667 538.354065,300.793854 
M529.087830,257.997864 
	C535.267395,256.973969 541.446960,255.950043 547.626526,254.926132 
	C547.129089,253.534912 546.707520,253.075577 546.373169,253.132126 
	C540.515259,254.123093 534.664246,255.157715 528.831299,256.284119 
	C528.581787,256.332306 528.520752,257.355804 529.087830,257.997864 
z"/>
<path fill="#101010" opacity="1.000000" stroke="none" 
	d="
M615.989136,425.853973 
	C615.363037,425.201965 614.829163,424.412689 614.096008,423.920105 
	C609.147644,420.595642 608.407288,415.234314 612.797729,410.855286 
	C615.269836,408.389557 616.127014,405.858215 616.069641,402.461975 
	C615.892273,391.968842 616.161621,381.466736 615.886047,370.977844 
	C615.823242,368.589294 614.764893,365.857788 613.301453,363.944458 
	C608.935059,358.235962 608.942810,355.670563 613.445435,349.912384 
	C614.834778,348.135590 615.840088,345.558624 615.892700,343.321472 
	C616.143250,332.664642 615.878845,321.996307 616.077332,311.337280 
	C616.141602,307.884949 615.371033,305.148926 612.584106,303.074188 
	C609.558044,300.821411 609.082825,297.508820 610.504089,294.594604 
	C611.979370,291.569733 614.161316,288.889618 618.498230,288.931671 
	C636.823059,289.109375 655.150635,289.007629 673.477173,289.007568 
	C685.553223,289.007507 697.630737,289.113556 709.704529,288.947266 
	C713.856873,288.890106 717.812988,289.585449 719.446655,293.488983 
	C721.026184,297.263428 720.260986,301.222260 717.108826,304.552826 
	C715.900879,305.829102 715.113525,308.022400 715.085815,309.812531 
	C714.908508,321.305542 714.925354,332.803528 715.073669,344.297363 
	C715.095093,345.954620 715.778809,347.913055 716.818726,349.194153 
	C721.421875,354.864868 721.304993,359.231934 716.356201,364.522339 
	C715.475159,365.464294 715.082764,367.179443 715.054993,368.549530 
	C714.923401,375.044464 715.120239,381.546936 714.942322,388.039642 
	C714.858093,391.112244 716.037781,391.789276 718.973022,392.130859 
	C724.571533,392.782288 728.332458,390.043671 732.329712,386.834595 
	C737.439392,382.732391 742.758545,378.803955 748.369385,375.437286 
	C754.210388,371.932526 754.359985,368.252533 748.932068,363.823608 
	C744.782471,360.437622 740.539856,356.648346 737.806702,352.147064 
	C731.337708,341.493164 732.449280,329.493011 733.661682,317.731934 
	C734.657776,308.069672 738.947388,300.138336 746.762207,294.068573 
	C756.773315,286.292938 782.195496,286.559174 791.972046,298.107666 
	C792.496094,298.726654 792.715210,299.603760 793.076233,300.360687 
	C793.469482,300.135834 793.862732,299.910980 794.255981,299.686096 
	C794.504761,298.833618 794.877441,297.996033 794.982361,297.126221 
	C795.658447,291.520111 798.158936,289.041565 803.693787,289.027924 
	C825.125977,288.975067 846.587952,288.392426 867.970703,289.422333 
	C873.565979,289.691833 878.842896,289.684540 884.394348,289.199066 
	C892.826721,288.461578 901.389465,288.692932 909.857483,289.186890 
	C912.585510,289.346008 916.111206,290.967438 917.640686,293.093475 
	C920.118042,296.536926 919.594360,301.015015 916.302979,303.999390 
	C913.313660,306.709778 912.896790,309.732727 912.947205,313.369598 
	C913.085815,323.363983 912.950623,333.361908 913.036682,343.357452 
	C913.051941,345.131439 913.610291,346.900696 913.917847,348.672150 
	C914.475708,348.650024 915.033508,348.627899 915.591370,348.605774 
	C915.729248,346.961334 915.932617,345.319366 915.994141,343.672089 
	C916.347107,334.220825 916.387085,324.748291 917.063721,315.321045 
	C918.029053,301.870728 931.967957,287.857300 946.470215,288.940491 
	C954.994263,289.577179 963.691284,287.780060 971.708435,292.770630 
	C981.188599,298.671997 986.593872,306.693634 986.984314,317.926697 
	C987.059448,320.089966 986.995056,322.258057 986.995056,324.423920 
	C986.995056,334.504913 986.995117,334.504913 977.424072,341.005676 
	C980.563416,341.005676 982.374451,341.062531 984.180786,340.993958 
	C988.097961,340.845276 990.872253,342.431702 992.526794,346.061371 
	C994.254150,349.850830 993.288818,352.744598 990.747070,356.019012 
	C988.774719,358.559906 987.304077,362.141113 987.160339,365.329773 
	C986.710571,375.305817 986.996460,385.314911 986.994751,395.311218 
	C986.992432,408.759766 978.201599,420.290955 965.174011,424.001282 
	C964.450928,424.207214 963.826416,424.759277 962.620483,425.583954 
	C955.052917,425.963104 948.020935,425.908539 940.917480,425.501740 
	C939.226990,424.472076 937.642578,423.691345 935.983215,423.134064 
	C925.636108,419.658875 917.660706,409.579468 917.045349,398.662170 
	C916.523071,389.397247 916.354187,380.112671 915.990723,370.838287 
	C915.924011,369.137299 915.674011,367.443512 915.508606,365.746368 
	C915.027100,365.716370 914.545593,365.686340 914.064087,365.656311 
	C913.707764,367.430267 913.059143,369.201538 913.043030,370.978546 
	C912.946289,381.628387 912.862732,392.282623 913.109741,402.927612 
	C913.157593,404.987152 914.323730,407.285065 915.607727,408.997955 
	C918.508179,412.867035 920.205872,416.787476 917.648865,421.373993 
	C916.726318,423.028992 915.240112,424.369781 913.548096,425.935852 
	C905.610718,426.008850 898.136353,426.001892 890.662048,425.990814 
	C860.437622,425.945892 830.213257,425.899689 799.934448,425.520477 
	C797.820862,422.248322 795.761536,419.309692 794.187256,417.063141 
	C789.232971,419.254211 783.594360,421.719360 777.997253,424.275085 
	C777.526367,424.490082 777.333252,425.313263 776.548096,425.935791 
	C742.500183,426.022064 708.915283,426.047729 675.330444,426.022736 
	C655.549988,426.008026 635.769592,425.912933 615.989136,425.853973 
M879.864380,344.701721 
	C876.088257,333.011566 872.365967,321.303589 868.508423,309.640381 
	C867.039978,305.200409 865.372070,300.862244 869.113892,296.552917 
	C858.899048,296.552917 849.368164,296.552917 839.252869,296.552917 
	C840.035889,297.949860 840.303711,298.984863 840.971619,299.526215 
	C844.582214,302.452362 845.224792,306.242767 845.115417,310.663086 
	C844.872437,320.487427 845.067505,330.322052 845.029419,340.152252 
	C845.005249,346.393799 846.523193,353.144073 838.446533,357.255188 
	C845.804382,361.460663 845.186279,367.716431 845.077698,373.928741 
	C844.926208,382.590118 845.029785,391.256165 845.042908,399.920197 
	C845.052063,405.966156 846.165161,412.320221 838.763489,416.742676 
	C849.651611,416.742676 859.063660,416.742676 868.475647,416.742676 
	C863.535706,412.879425 863.174683,407.931244 863.226440,402.501221 
	C863.396240,384.675415 863.249634,366.846649 863.258911,349.019043 
	C863.259399,348.047577 863.571472,347.076233 863.981262,344.694000 
	C865.006470,347.293213 865.526062,348.478088 865.946655,349.697113 
	C871.585999,366.040222 877.280396,382.364838 882.804504,398.746887 
	C884.830261,404.754395 889.552002,410.965027 881.184937,416.784546 
	C891.946716,416.784546 901.422180,416.784546 910.897644,416.784546 
	C904.885986,412.496613 905.815186,406.447357 905.847900,400.654755 
	C905.890320,393.157257 905.736633,385.656830 905.892761,378.162354 
	C906.046997,370.759918 903.588257,362.634064 912.506897,357.043396 
	C904.772705,353.225616 905.822876,346.939728 905.847717,340.957947 
	C905.887268,331.460968 905.976562,321.961670 905.810913,312.467438 
	C905.721680,307.350372 905.627380,302.443298 910.434265,299.031494 
	C910.977295,298.645996 910.887756,297.369202 911.052063,296.672852 
	C901.237122,296.672852 891.756714,296.672852 882.676086,296.672852 
	C884.496704,300.777374 887.506226,304.511047 887.614746,308.327240 
	C888.126099,326.307281 887.849304,344.309875 887.822632,362.304413 
	C887.821167,363.277863 887.539124,364.250916 887.387695,365.224121 
	C887.093750,365.240692 886.799866,365.257263 886.505981,365.273834 
	C884.349976,358.675110 882.193970,352.076385 879.864380,344.701721 
M969.988708,413.713318 
	C976.678345,408.578156 979.672852,401.592224 979.834534,393.360840 
	C980.007874,384.538422 980.028564,375.709381 979.907837,366.886078 
	C979.823181,360.699127 979.243286,354.477417 985.224243,350.257843 
	C985.438110,350.106903 985.251404,349.388153 985.251404,348.408691 
	C976.036865,348.408691 966.932800,348.357117 957.831421,348.489563 
	C956.934265,348.502594 955.554321,349.458282 955.246887,350.290009 
	C953.383240,355.332916 951.766052,360.466888 949.883362,366.120392 
	C952.916504,366.120392 955.247314,366.312805 957.533630,366.075745 
	C961.056824,365.710388 962.212402,367.073303 962.062012,370.579376 
	C961.812500,376.397003 961.994629,382.233063 961.994080,388.061371 
	C961.993042,398.879211 960.878601,399.945831 949.923767,399.611511 
	C949.258667,399.591217 948.591248,399.585602 947.929626,399.523193 
	C943.793457,399.132996 941.779053,397.092438 941.797302,392.697479 
	C941.896301,368.885101 941.814941,345.072083 941.865662,321.259430 
	C941.877136,315.874573 943.749268,314.104553 949.034790,314.001984 
	C950.699341,313.969666 952.365295,313.979950 954.030273,314.000183 
	C960.221924,314.075439 961.930115,315.783386 961.983704,322.092957 
	C962.030701,327.619720 961.993530,333.147156 961.993530,339.426270 
	C965.449585,337.682739 967.952332,336.432037 970.444641,335.160706 
	C980.647705,329.955963 980.646545,329.953674 979.859375,318.603607 
	C979.018921,306.484741 971.566895,297.805389 960.029724,296.461304 
	C954.457947,295.812164 948.669922,295.851349 943.104919,296.560944 
	C932.325745,297.935394 924.574280,306.808258 924.101624,317.708435 
	C923.777466,325.184845 923.663696,332.676453 923.695801,340.160248 
	C923.722290,346.329651 924.492798,352.614807 917.345337,357.010406 
	C925.023254,361.130737 923.568726,367.654724 923.660828,373.727051 
	C923.771790,381.046509 923.577148,388.391876 924.139221,395.677856 
	C924.835144,404.698334 928.539795,412.535339 937.707886,415.341309 
	C948.179871,418.546326 958.960754,418.852264 969.988708,413.713318 
M641.646301,391.437958 
	C641.645752,384.444763 641.744202,377.449554 641.599670,370.459351 
	C641.534973,367.330505 642.431274,365.863037 645.849548,366.076996 
	C653.405090,366.549835 661.588806,363.994843 667.925659,372.528412 
	C667.925659,361.509064 667.925659,352.072266 667.925659,340.819000 
	C660.451843,352.143921 650.768799,347.494507 642.078674,348.152527 
	C642.078674,336.408966 642.078674,325.363678 642.078674,314.000153 
	C647.645203,314.000153 652.806702,314.310974 657.914734,313.921082 
	C664.221497,313.439636 669.774841,314.394653 673.979919,319.584412 
	C674.063171,319.687103 674.563171,319.452209 674.736633,319.408264 
	C674.736633,311.774200 674.736633,304.185181 674.736633,296.605133 
	C655.611816,296.605133 636.813538,296.605133 617.391113,296.605133 
	C618.272949,298.049744 618.582336,299.096344 619.282715,299.613708 
	C622.917969,302.298767 623.540527,305.930756 623.432983,310.178864 
	C623.209778,318.997986 623.495789,327.829224 623.325378,336.650726 
	C623.182556,344.042847 625.625732,352.164185 616.958557,357.599396 
	C623.660034,361.455902 623.571838,367.071075 623.414856,372.877563 
	C623.212402,380.364807 623.609070,387.871857 623.296814,395.351562 
	C622.986328,402.789032 626.134033,411.103699 617.193298,416.874084 
	C637.250244,416.874084 655.977051,416.874084 674.651245,416.874084 
	C674.651245,409.020630 674.651245,401.528870 674.651245,392.843445 
	C672.704651,395.016052 671.722412,396.623505 670.301086,397.575073 
	C668.328186,398.895844 666.076050,400.471161 663.854797,400.620697 
	C657.721924,401.033539 651.541443,400.680664 645.382996,400.798096 
	C642.534668,400.852386 641.452942,399.634491 641.628845,396.909271 
	C641.725220,395.416931 641.646240,393.913269 641.646301,391.437958 
M759.065247,417.006134 
	C763.060852,417.077393 767.057068,417.232025 771.052002,417.204498 
	C783.789917,417.116730 792.397522,410.166199 793.903992,397.461395 
	C794.835876,389.602600 794.417114,381.527008 793.992798,373.581451 
	C793.639282,366.960815 790.374878,361.368347 784.915039,357.613312 
	C780.317932,354.451630 776.828125,350.912598 776.981262,344.918274 
	C775.395325,345.009216 774.402954,345.008850 773.425842,345.130951 
	C763.096863,346.421509 758.777832,342.565887 758.772217,332.023315 
	C758.770325,328.524902 758.705322,325.024902 758.788391,321.528473 
	C758.932495,315.464325 760.658508,313.962646 767.229187,313.997131 
	C773.482239,314.029968 775.064087,315.486938 775.143433,321.450043 
	C775.199585,325.667908 775.154297,329.887177 775.154297,335.083862 
	C781.456543,331.890961 786.632202,329.338348 791.715332,326.612885 
	C792.415466,326.237518 792.900635,325.052856 793.073303,324.162964 
	C795.728210,310.484650 785.250244,297.053101 771.244385,296.170074 
	C768.920898,296.023560 766.580505,296.088318 764.249329,296.132080 
	C751.888000,296.364227 742.841675,303.892944 741.397888,316.154755 
	C740.586731,323.043640 741.103577,330.100494 741.183838,337.079773 
	C741.281067,345.538147 744.824890,352.247620 752.125122,356.625671 
	C756.709412,359.374908 760.727112,362.312408 760.131531,368.526764 
	C761.851074,368.399200 762.828735,368.371887 763.794067,368.247986 
	C772.655029,367.110992 776.277283,370.347931 776.320068,379.494019 
	C776.340332,383.825256 776.437012,388.160767 776.287598,392.487030 
	C776.085266,398.346039 774.231689,399.669769 766.830322,399.613190 
	C760.149597,399.562103 758.192261,397.967163 758.062622,392.229797 
	C757.966187,387.962891 758.043579,383.692108 758.043579,378.560760 
	C752.162354,381.570496 746.983948,384.110535 741.944397,386.901154 
	C741.039612,387.402161 740.277100,388.897888 740.176575,390.000671 
	C739.021606,402.675812 747.058044,415.256622 759.065247,417.006134 
M688.859558,343.351624 
	C689.780701,349.122925 687.640259,353.712708 682.556152,357.462463 
	C689.353699,361.465332 689.046570,367.495300 688.902893,373.609619 
	C688.722839,381.266052 689.000977,388.933319 688.817932,396.589569 
	C688.649963,403.611450 691.053955,411.306335 682.753967,416.905884 
	C701.358093,416.905884 718.567261,416.905884 735.849365,416.905884 
	C735.849365,409.281403 735.849365,401.977234 735.849365,395.005005 
	C732.100647,397.014954 728.776978,399.759247 725.039307,400.552307 
	C720.577209,401.499084 715.757141,400.665039 711.098938,400.814575 
	C708.100830,400.910828 706.940186,399.832611 707.039734,396.749207 
	C707.227844,390.926544 706.927124,385.087494 707.135681,379.266205 
	C707.411438,371.569427 704.589844,363.059998 713.613037,357.234436 
	C706.565918,353.164703 706.931946,347.139709 707.051331,341.054718 
	C707.221008,332.398163 707.177856,323.734772 707.066040,315.076324 
	C706.986267,308.906799 706.295715,302.637115 712.404358,298.472992 
	C712.688049,298.279572 712.628967,297.583282 712.823730,296.687988 
	C702.921326,296.687988 693.217407,296.687988 683.513428,296.687988 
	C688.567810,301.556732 689.199646,307.166962 688.957886,313.415314 
	C688.584717,323.059937 688.859558,332.729645 688.859558,343.351624 
M828.060364,412.234589 
	C827.513916,410.026947 826.533569,407.826721 826.495605,405.610321 
	C826.324402,395.616699 826.439636,385.618439 826.412903,375.621979 
	C826.394836,368.853729 825.187134,361.764069 832.842041,356.917389 
	C825.845947,352.667633 826.233704,346.475861 826.374695,340.223206 
	C826.558655,332.063507 826.594971,323.891571 826.365295,315.734192 
	C826.175964,309.011230 825.890320,302.417236 831.740601,297.532898 
	C831.852417,297.439545 831.623047,296.937592 831.523743,296.497284 
	C822.030273,296.497284 812.528381,296.497284 802.447815,296.497284 
	C803.130737,297.847137 803.335327,298.926971 803.985718,299.426483 
	C807.897156,302.430756 808.304138,306.499207 808.213257,311.030640 
	C808.016235,320.856598 808.015625,330.691895 808.202026,340.518280 
	C808.320496,346.762482 808.766602,352.949860 801.458801,357.403320 
	C809.168335,361.166321 808.240479,367.377167 808.176208,373.382996 
	C808.083374,382.045685 808.054688,390.711578 808.185547,399.373291 
	C808.278625,405.540131 808.795105,411.736145 802.970703,416.019379 
	C802.884644,416.082642 803.135132,416.603577 803.212524,416.858215 
	C812.748230,416.858215 822.257385,416.858215 833.269897,416.858215 
	C831.031677,414.936920 829.800049,413.879639 828.060364,412.234589 
M678.660583,363.149780 
	C677.917603,362.368011 677.174683,361.586212 675.994873,360.344788 
	C675.994873,363.893707 675.905701,366.711426 676.015686,369.521393 
	C676.181091,373.745544 674.452759,376.899261 670.797424,378.894409 
	C666.838684,381.055115 663.453308,379.080841 661.053406,376.349548 
	C657.610291,372.431030 653.798218,372.525391 649.271301,373.564240 
	C649.169067,375.093231 649.017517,376.394348 649.007324,377.696625 
	C648.977356,381.518768 648.936096,385.343567 649.059204,389.162170 
	C649.087036,390.025879 649.784302,391.619202 650.136536,391.608978 
	C655.665588,391.448334 662.314758,392.876953 666.425964,390.300903 
	C671.481750,387.132996 675.398010,385.567352 680.998901,388.503998 
	C680.998901,381.207947 681.093384,374.405701 680.917419,367.610443 
	C680.883240,366.290253 679.795837,364.997345 678.660583,363.149780 
M662.069031,321.994934 
	C658.738037,321.998260 655.389771,321.811707 652.086060,322.113617 
	C651.009277,322.212006 649.217407,323.539551 649.171875,324.381683 
	C648.897400,329.454010 649.035461,334.548676 649.035461,339.655182 
	C654.353333,340.233307 658.346924,340.360657 662.312500,336.805908 
	C664.188782,335.123932 668.922363,334.994690 671.440247,336.157104 
	C673.631042,337.168457 675.080017,340.835205 675.835449,343.606903 
	C676.566284,346.288147 675.993896,349.324646 675.993896,352.205078 
	C676.413879,352.335327 676.833801,352.465546 677.253784,352.595764 
	C678.492737,350.763947 680.685303,348.989929 680.800476,347.089996 
	C681.227783,340.042877 680.970703,332.954254 680.970703,325.010834 
	C675.403870,329.562836 671.233582,328.218750 667.284607,323.921570 
	C666.303406,322.853790 664.419617,322.615417 662.069031,321.994934 
M799.441711,329.106598 
	C795.510681,331.963776 791.805542,335.234497 787.575867,337.545074 
	C784.289490,339.340363 783.085999,341.419403 784.445435,344.634918 
	C785.401428,346.896240 786.815369,349.085541 788.473938,350.895477 
	C790.276123,352.861969 792.598145,354.352081 794.345886,355.768250 
	C795.806091,353.765991 797.367920,351.875885 798.635254,349.805511 
	C799.616028,348.203339 800.787720,346.410217 800.897461,344.641418 
	C801.204651,339.688721 801.033630,334.704132 800.953430,329.733734 
	C800.946838,329.324219 800.199890,328.926666 799.441711,329.106598 
M838.004883,330.497986 
	C838.004639,323.854584 838.109985,317.208435 837.935486,310.569611 
	C837.887695,308.751190 837.001648,306.954773 836.500366,305.148224 
	C834.831116,306.086151 834.129578,306.778442 834.124878,307.475433 
	C834.037659,320.262390 833.988647,333.050323 834.106628,345.836487 
	C834.115112,346.762421 835.467224,347.675934 836.194702,348.595215 
	C836.794678,347.546082 837.867798,346.516785 837.912720,345.444397 
	C838.107361,340.802032 838.001465,336.147125 838.004883,330.497986 
M833.995117,375.570740 
	C833.995117,386.260742 833.995117,396.950745 833.995117,407.640747 
	C834.507385,407.821625 835.019653,408.002472 835.531921,408.183350 
	C836.333923,407.223389 837.580994,406.378845 837.864868,405.284485 
	C839.571289,398.706543 837.807434,367.807007 834.682922,364.243011 
	C834.404358,368.436920 834.199768,371.517303 833.995117,375.570740 
z"/>
<path fill="#FA0000" opacity="1.000000" stroke="none" 
	d="
M532.874878,410.093628 
	C533.079712,395.196411 533.441040,380.702728 533.054077,366.229004 
	C532.973083,363.198120 530.134766,360.240967 528.226257,356.599457 
	C534.946167,352.258789 533.221741,344.742737 533.277893,337.722046 
	C533.335266,330.559387 533.423401,323.392303 533.228760,316.234467 
	C533.148193,313.269440 534.377136,312.050110 537.081299,311.684418 
	C539.383667,311.373108 541.716431,311.102386 543.946228,310.488678 
	C546.266846,309.849976 548.480225,308.821747 551.399353,307.713837 
	C551.482849,308.986938 551.685913,310.684998 551.690735,312.383606 
	C551.720581,322.878357 551.833435,333.375641 551.634521,343.866699 
	C551.567078,347.420776 552.789429,348.580566 556.237244,348.361145 
	C560.053223,348.118286 563.900513,348.198456 567.726746,348.338623 
	C570.594299,348.443665 571.958435,347.609741 571.924072,344.415497 
	C571.789612,331.923126 572.222778,319.411560 571.630371,306.945862 
	C571.471680,303.607147 568.424866,300.405670 566.460876,296.680054 
	C576.027893,296.680054 585.616760,296.680054 596.024231,296.680054 
	C594.849060,298.186279 593.779480,299.173248 593.192139,300.392517 
	C592.085022,302.690704 590.488647,305.106812 590.438904,307.501770 
	C590.168945,320.489807 590.008911,333.497803 590.504578,346.472412 
	C590.641174,350.047180 593.156311,353.531128 594.931580,357.927368 
	C587.892395,362.645233 590.573730,371.120270 590.354065,378.834259 
	C590.150208,385.991547 590.373169,393.159973 590.291199,400.322174 
	C590.222778,406.305237 589.423523,412.453674 596.433411,416.298767 
	C596.016418,416.534698 595.599487,416.770630 595.182556,417.006561 
	C585.623840,417.006561 576.065125,417.006561 564.746399,417.006561 
	C573.544556,411.644562 571.827332,404.151947 571.860901,397.164398 
	C571.903259,388.335632 571.750305,379.504089 571.930054,370.678772 
	C572.001465,367.172943 570.739502,365.893738 567.277222,366.077606 
	C563.290405,366.289307 559.252014,365.845306 555.303772,366.288940 
	C553.998169,366.435638 551.889404,368.433868 551.867004,369.618042 
	C551.624695,382.440186 551.432739,395.280640 551.949768,408.086884 
	C552.070374,411.074463 554.916870,413.951965 556.584290,417.018311 
	C547.245544,417.018311 537.700989,417.018311 527.206299,417.018311 
	C529.426880,414.416199 531.096008,412.460236 532.874878,410.093628 
z"/>
<path fill="#FFFFFF" opacity="1.000000" stroke="none" 
	d="
M615.525513,425.921814 
	C635.769592,425.912933 655.549988,426.008026 675.330444,426.022736 
	C708.915283,426.047729 742.500183,426.022064 777.011658,426.003662 
	C785.288452,425.944458 792.638672,425.899231 799.988831,425.853973 
	C830.213257,425.899689 860.437622,425.945892 890.662048,425.990814 
	C898.136353,426.001892 905.610718,426.008850 914.011658,426.003662 
	C923.621826,425.944427 932.305359,425.899200 940.988892,425.853943 
	C948.020935,425.908539 955.052917,425.963104 962.547974,425.935822 
	C971.480225,425.853973 979.949585,425.853973 988.708557,425.853973 
	C988.708557,428.940063 988.708557,431.678345 988.708557,434.711914 
	C831.364685,434.711914 673.918518,434.711914 516.236084,434.711914 
	C516.236084,431.952423 516.236084,429.216492 516.236084,425.989685 
	C549.219238,425.989685 582.140564,425.989685 615.525513,425.921814 
z"/>
<path fill="#8A2501" opacity="1.000000" stroke="none" 
	d="
M537.938782,300.827698 
	C533.889038,300.952667 530.255127,301.079559 526.620056,301.127441 
	C519.142151,301.225983 521.472656,295.843811 521.132080,291.775696 
	C537.601074,298.279083 549.168030,290.159271 560.400330,279.637482 
	C561.084839,282.702850 562.360352,285.746826 558.430115,287.874146 
	C557.775696,288.228363 557.257080,288.939972 556.827759,289.587280 
	C552.424072,296.227753 545.729614,299.066956 537.938782,300.827698 
z"/>
<path fill="#101010" opacity="1.000000" stroke="none" 
	d="
M528.729858,257.961426 
	C528.520752,257.355804 528.581787,256.332306 528.831299,256.284119 
	C534.664246,255.157715 540.515259,254.123093 546.373169,253.132126 
	C546.707520,253.075577 547.129089,253.534912 547.626526,254.926132 
	C541.446960,255.950043 535.267395,256.973969 528.729858,257.961426 
z"/>
<path fill="#FBFBFB" opacity="1.000000" stroke="none" 
	d="
M879.951172,345.089691 
	C882.193970,352.076385 884.349976,358.675110 886.505981,365.273834 
	C886.799866,365.257263 887.093750,365.240692 887.387695,365.224121 
	C887.539124,364.250916 887.821167,363.277863 887.822632,362.304413 
	C887.849304,344.309875 888.126099,326.307281 887.614746,308.327240 
	C887.506226,304.511047 884.496704,300.777374 882.676086,296.672852 
	C891.756714,296.672852 901.237122,296.672852 911.052063,296.672852 
	C910.887756,297.369202 910.977295,298.645996 910.434265,299.031494 
	C905.627380,302.443298 905.721680,307.350372 905.810913,312.467438 
	C905.976562,321.961670 905.887268,331.460968 905.847717,340.957947 
	C905.822876,346.939728 904.772705,353.225616 912.506897,357.043396 
	C903.588257,362.634064 906.046997,370.759918 905.892761,378.162354 
	C905.736633,385.656830 905.890320,393.157257 905.847900,400.654755 
	C905.815186,406.447357 904.885986,412.496613 910.897644,416.784546 
	C901.422180,416.784546 891.946716,416.784546 881.184937,416.784546 
	C889.552002,410.965027 884.830261,404.754395 882.804504,398.746887 
	C877.280396,382.364838 871.585999,366.040222 865.946655,349.697113 
	C865.526062,348.478088 865.006470,347.293213 863.981262,344.694000 
	C863.571472,347.076233 863.259399,348.047577 863.258911,349.019043 
	C863.249634,366.846649 863.396240,384.675415 863.226440,402.501221 
	C863.174683,407.931244 863.535706,412.879425 868.475647,416.742676 
	C859.063660,416.742676 849.651611,416.742676 838.763489,416.742676 
	C846.165161,412.320221 845.052063,405.966156 845.042908,399.920197 
	C845.029785,391.256165 844.926208,382.590118 845.077698,373.928741 
	C845.186279,367.716431 845.804382,361.460663 838.446533,357.255188 
	C846.523193,353.144073 845.005249,346.393799 845.029419,340.152252 
	C845.067505,330.322052 844.872437,320.487427 845.115417,310.663086 
	C845.224792,306.242767 844.582214,302.452362 840.971619,299.526215 
	C840.303711,298.984863 840.035889,297.949860 839.252869,296.552917 
	C849.368164,296.552917 858.899048,296.552917 869.113892,296.552917 
	C865.372070,300.862244 867.039978,305.200409 868.508423,309.640381 
	C872.365967,321.303589 876.088257,333.011566 879.951172,345.089691 
z"/>
<path fill="#FBFBFB" opacity="1.000000" stroke="none" 
	d="
M969.654236,413.891876 
	C958.960754,418.852264 948.179871,418.546326 937.707886,415.341309 
	C928.539795,412.535339 924.835144,404.698334 924.139221,395.677856 
	C923.577148,388.391876 923.771790,381.046509 923.660828,373.727051 
	C923.568726,367.654724 925.023254,361.130737 917.345337,357.010406 
	C924.492798,352.614807 923.722290,346.329651 923.695801,340.160248 
	C923.663696,332.676453 923.777466,325.184845 924.101624,317.708435 
	C924.574280,306.808258 932.325745,297.935394 943.104919,296.560944 
	C948.669922,295.851349 954.457947,295.812164 960.029724,296.461304 
	C971.566895,297.805389 979.018921,306.484741 979.859375,318.603607 
	C980.646545,329.953674 980.647705,329.955963 970.444641,335.160706 
	C967.952332,336.432037 965.449585,337.682739 961.993530,339.426270 
	C961.993530,333.147156 962.030701,327.619720 961.983704,322.092957 
	C961.930115,315.783386 960.221924,314.075439 954.030273,314.000183 
	C952.365295,313.979950 950.699341,313.969666 949.034790,314.001984 
	C943.749268,314.104553 941.877136,315.874573 941.865662,321.259430 
	C941.814941,345.072083 941.896301,368.885101 941.797302,392.697479 
	C941.779053,397.092438 943.793457,399.132996 947.929626,399.523193 
	C948.591248,399.585602 949.258667,399.591217 949.923767,399.611511 
	C960.878601,399.945831 961.993042,398.879211 961.994080,388.061371 
	C961.994629,382.233063 961.812500,376.397003 962.062012,370.579376 
	C962.212402,367.073303 961.056824,365.710388 957.533630,366.075745 
	C955.247314,366.312805 952.916504,366.120392 949.883362,366.120392 
	C951.766052,360.466888 953.383240,355.332916 955.246887,350.290009 
	C955.554321,349.458282 956.934265,348.502594 957.831421,348.489563 
	C966.932800,348.357117 976.036865,348.408691 985.251404,348.408691 
	C985.251404,349.388153 985.438110,350.106903 985.224243,350.257843 
	C979.243286,354.477417 979.823181,360.699127 979.907837,366.886078 
	C980.028564,375.709381 980.007874,384.538422 979.834534,393.360840 
	C979.672852,401.592224 976.678345,408.578156 969.654236,413.891876 
z"/>
<path fill="#F9F9F9" opacity="1.000000" stroke="none" 
	d="
M641.646301,391.926331 
	C641.646240,393.913269 641.725220,395.416931 641.628845,396.909271 
	C641.452942,399.634491 642.534668,400.852386 645.382996,400.798096 
	C651.541443,400.680664 657.721924,401.033539 663.854797,400.620697 
	C666.076050,400.471161 668.328186,398.895844 670.301086,397.575073 
	C671.722412,396.623505 672.704651,395.016052 674.651245,392.843445 
	C674.651245,401.528870 674.651245,409.020630 674.651245,416.874084 
	C655.977051,416.874084 637.250244,416.874084 617.193298,416.874084 
	C626.134033,411.103699 622.986328,402.789032 623.296814,395.351562 
	C623.609070,387.871857 623.212402,380.364807 623.414856,372.877563 
	C623.571838,367.071075 623.660034,361.455902 616.958557,357.599396 
	C625.625732,352.164185 623.182556,344.042847 623.325378,336.650726 
	C623.495789,327.829224 623.209778,318.997986 623.432983,310.178864 
	C623.540527,305.930756 622.917969,302.298767 619.282715,299.613708 
	C618.582336,299.096344 618.272949,298.049744 617.391113,296.605133 
	C636.813538,296.605133 655.611816,296.605133 674.736633,296.605133 
	C674.736633,304.185181 674.736633,311.774200 674.736633,319.408264 
	C674.563171,319.452209 674.063171,319.687103 673.979919,319.584412 
	C669.774841,314.394653 664.221497,313.439636 657.914734,313.921082 
	C652.806702,314.310974 647.645203,314.000153 642.078674,314.000153 
	C642.078674,325.363678 642.078674,336.408966 642.078674,348.152527 
	C650.768799,347.494507 660.451843,352.143921 667.925659,340.819000 
	C667.925659,352.072266 667.925659,361.509064 667.925659,372.528412 
	C661.588806,363.994843 653.405090,366.549835 645.849548,366.076996 
	C642.431274,365.863037 641.534973,367.330505 641.599670,370.459351 
	C641.744202,377.449554 641.645752,384.444763 641.646301,391.926331 
z"/>
<path fill="#FBFBFB" opacity="1.000000" stroke="none" 
	d="
M758.634155,416.928223 
	C747.058044,415.256622 739.021606,402.675812 740.176575,390.000671 
	C740.277100,388.897888 741.039612,387.402161 741.944397,386.901154 
	C746.983948,384.110535 752.162354,381.570496 758.043579,378.560760 
	C758.043579,383.692108 757.966187,387.962891 758.062622,392.229797 
	C758.192261,397.967163 760.149597,399.562103 766.830322,399.613190 
	C774.231689,399.669769 776.085266,398.346039 776.287598,392.487030 
	C776.437012,388.160767 776.340332,383.825256 776.320068,379.494019 
	C776.277283,370.347931 772.655029,367.110992 763.794067,368.247986 
	C762.828735,368.371887 761.851074,368.399200 760.131531,368.526764 
	C760.727112,362.312408 756.709412,359.374908 752.125122,356.625671 
	C744.824890,352.247620 741.281067,345.538147 741.183838,337.079773 
	C741.103577,330.100494 740.586731,323.043640 741.397888,316.154755 
	C742.841675,303.892944 751.888000,296.364227 764.249329,296.132080 
	C766.580505,296.088318 768.920898,296.023560 771.244385,296.170074 
	C785.250244,297.053101 795.728210,310.484650 793.073303,324.162964 
	C792.900635,325.052856 792.415466,326.237518 791.715332,326.612885 
	C786.632202,329.338348 781.456543,331.890961 775.154297,335.083862 
	C775.154297,329.887177 775.199585,325.667908 775.143433,321.450043 
	C775.064087,315.486938 773.482239,314.029968 767.229187,313.997131 
	C760.658508,313.962646 758.932495,315.464325 758.788391,321.528473 
	C758.705322,325.024902 758.770325,328.524902 758.772217,332.023315 
	C758.777832,342.565887 763.096863,346.421509 773.425842,345.130951 
	C774.402954,345.008850 775.395325,345.009216 776.981262,344.918274 
	C776.828125,350.912598 780.317932,354.451630 784.915039,357.613312 
	C790.374878,361.368347 793.639282,366.960815 793.992798,373.581451 
	C794.417114,381.527008 794.835876,389.602600 793.903992,397.461395 
	C792.397522,410.166199 783.789917,417.116730 771.052002,417.204498 
	C767.057068,417.232025 763.060852,417.077393 758.634155,416.928223 
z"/>
<path fill="#FDFDFD" opacity="1.000000" stroke="none" 
	d="
M688.859558,342.870178 
	C688.859558,332.729645 688.584717,323.059937 688.957886,313.415314 
	C689.199646,307.166962 688.567810,301.556732 683.513428,296.687988 
	C693.217407,296.687988 702.921326,296.687988 712.823730,296.687988 
	C712.628967,297.583282 712.688049,298.279572 712.404358,298.472992 
	C706.295715,302.637115 706.986267,308.906799 707.066040,315.076324 
	C707.177856,323.734772 707.221008,332.398163 707.051331,341.054718 
	C706.931946,347.139709 706.565918,353.164703 713.613037,357.234436 
	C704.589844,363.059998 707.411438,371.569427 707.135681,379.266205 
	C706.927124,385.087494 707.227844,390.926544 707.039734,396.749207 
	C706.940186,399.832611 708.100830,400.910828 711.098938,400.814575 
	C715.757141,400.665039 720.577209,401.499084 725.039307,400.552307 
	C728.776978,399.759247 732.100647,397.014954 735.849365,395.005005 
	C735.849365,401.977234 735.849365,409.281403 735.849365,416.905884 
	C718.567261,416.905884 701.358093,416.905884 682.753967,416.905884 
	C691.053955,411.306335 688.649963,403.611450 688.817932,396.589569 
	C689.000977,388.933319 688.722839,381.266052 688.902893,373.609619 
	C689.046570,367.495300 689.353699,361.465332 682.556152,357.462463 
	C687.640259,353.712708 689.780701,349.122925 688.859558,342.870178 
z"/>
<path fill="#FBFBFB" opacity="1.000000" stroke="none" 
	d="
M828.314331,412.528503 
	C829.800049,413.879639 831.031677,414.936920 833.269897,416.858215 
	C822.257385,416.858215 812.748230,416.858215 803.212524,416.858215 
	C803.135132,416.603577 802.884644,416.082642 802.970703,416.019379 
	C808.795105,411.736145 808.278625,405.540131 808.185547,399.373291 
	C808.054688,390.711578 808.083374,382.045685 808.176208,373.382996 
	C808.240479,367.377167 809.168335,361.166321 801.458801,357.403320 
	C808.766602,352.949860 808.320496,346.762482 808.202026,340.518280 
	C808.015625,330.691895 808.016235,320.856598 808.213257,311.030640 
	C808.304138,306.499207 807.897156,302.430756 803.985718,299.426483 
	C803.335327,298.926971 803.130737,297.847137 802.447815,296.497284 
	C812.528381,296.497284 822.030273,296.497284 831.523743,296.497284 
	C831.623047,296.937592 831.852417,297.439545 831.740601,297.532898 
	C825.890320,302.417236 826.175964,309.011230 826.365295,315.734192 
	C826.594971,323.891571 826.558655,332.063507 826.374695,340.223206 
	C826.233704,346.475861 825.845947,352.667633 832.842041,356.917389 
	C825.187134,361.764069 826.394836,368.853729 826.412903,375.621979 
	C826.439636,385.618439 826.324402,395.616699 826.495605,405.610321 
	C826.533569,407.826721 827.513916,410.026947 828.314331,412.528503 
z"/>
<path fill="#000000" opacity="1.000000" stroke="none" 
	d="
M678.927429,363.420807 
	C679.795837,364.997345 680.883240,366.290253 680.917419,367.610443 
	C681.093384,374.405701 680.998901,381.207947 680.998901,388.503998 
	C675.398010,385.567352 671.481750,387.132996 666.425964,390.300903 
	C662.314758,392.876953 655.665588,391.448334 650.136536,391.608978 
	C649.784302,391.619202 649.087036,390.025879 649.059204,389.162170 
	C648.936096,385.343567 648.977356,381.518768 649.007324,377.696625 
	C649.017517,376.394348 649.169067,375.093231 649.271301,373.564240 
	C653.798218,372.525391 657.610291,372.431030 661.053406,376.349548 
	C663.453308,379.080841 666.838684,381.055115 670.797424,378.894409 
	C674.452759,376.899261 676.181091,373.745544 676.015686,369.521393 
	C675.905701,366.711426 675.994873,363.893707 675.994873,360.344788 
	C677.174683,361.586212 677.917603,362.368011 678.927429,363.420807 
z"/>
<path fill="#000000" opacity="1.000000" stroke="none" 
	d="
M662.509888,321.995361 
	C664.419617,322.615417 666.303406,322.853790 667.284607,323.921570 
	C671.233582,328.218750 675.403870,329.562836 680.970703,325.010834 
	C680.970703,332.954254 681.227783,340.042877 680.800476,347.089996 
	C680.685303,348.989929 678.492737,350.763947 677.253784,352.595764 
	C676.833801,352.465546 676.413879,352.335327 675.993896,352.205078 
	C675.993896,349.324646 676.566284,346.288147 675.835449,343.606903 
	C675.080017,340.835205 673.631042,337.168457 671.440247,336.157104 
	C668.922363,334.994690 664.188782,335.123932 662.312500,336.805908 
	C658.346924,340.360657 654.353333,340.233307 649.035461,339.655182 
	C649.035461,334.548676 648.897400,329.454010 649.171875,324.381683 
	C649.217407,323.539551 651.009277,322.212006 652.086060,322.113617 
	C655.389771,321.811707 658.738037,321.998260 662.509888,321.995361 
z"/>
<path fill="#000000" opacity="1.000000" stroke="none" 
	d="
M940.917480,425.501709 
	C932.305359,425.899200 923.621826,425.944427 914.474731,425.921814 
	C915.240112,424.369781 916.726318,423.028992 917.648865,421.373993 
	C920.205872,416.787476 918.508179,412.867035 915.607727,408.997955 
	C914.323730,407.285065 913.157593,404.987152 913.109741,402.927612 
	C912.862732,392.282623 912.946289,381.628387 913.043030,370.978546 
	C913.059143,369.201538 913.707764,367.430267 914.064087,365.656311 
	C914.545593,365.686340 915.027100,365.716370 915.508606,365.746368 
	C915.674011,367.443512 915.924011,369.137299 915.990723,370.838287 
	C916.354187,380.112671 916.523071,389.397247 917.045349,398.662170 
	C917.660706,409.579468 925.636108,419.658875 935.983215,423.134064 
	C937.642578,423.691345 939.226990,424.472076 940.917480,425.501709 
z"/>
<path fill="#000000" opacity="1.000000" stroke="none" 
	d="
M799.619324,328.815063 
	C800.199890,328.926666 800.946838,329.324219 800.953430,329.733734 
	C801.033630,334.704132 801.204651,339.688721 800.897461,344.641418 
	C800.787720,346.410217 799.616028,348.203339 798.635254,349.805511 
	C797.367920,351.875885 795.806091,353.765991 794.345886,355.768250 
	C792.598145,354.352081 790.276123,352.861969 788.473938,350.895477 
	C786.815369,349.085541 785.401428,346.896240 784.445435,344.634918 
	C783.085999,341.419403 784.289490,339.340363 787.575867,337.545074 
	C791.805542,335.234497 795.510681,331.963776 799.619324,328.815063 
z"/>
<path fill="#000000" opacity="1.000000" stroke="none" 
	d="
M838.004883,330.997375 
	C838.001465,336.147125 838.107361,340.802032 837.912720,345.444397 
	C837.867798,346.516785 836.794678,347.546082 836.194702,348.595215 
	C835.467224,347.675934 834.115112,346.762421 834.106628,345.836487 
	C833.988647,333.050323 834.037659,320.262390 834.124878,307.475433 
	C834.129578,306.778442 834.831116,306.086151 836.500366,305.148224 
	C837.001648,306.954773 837.887695,308.751190 837.935486,310.569611 
	C838.109985,317.208435 838.004639,323.854584 838.004883,330.997375 
z"/>
<path fill="#000000" opacity="1.000000" stroke="none" 
	d="
M833.995117,375.084198 
	C834.199768,371.517303 834.404358,368.436920 834.682922,364.243011 
	C837.807434,367.807007 839.571289,398.706543 837.864868,405.284485 
	C837.580994,406.378845 836.333923,407.223389 835.531921,408.183350 
	C835.019653,408.002472 834.507385,407.821625 833.995117,407.640747 
	C833.995117,396.950745 833.995117,386.260742 833.995117,375.084198 
z"/>
<path fill="#000000" opacity="1.000000" stroke="none" 
	d="
M799.934448,425.520477 
	C792.638672,425.899231 785.288452,425.944458 777.474731,425.921814 
	C777.333252,425.313263 777.526367,424.490082 777.997253,424.275085 
	C783.594360,421.719360 789.232971,419.254211 794.187256,417.063141 
	C795.761536,419.309692 797.820862,422.248322 799.934448,425.520477 
z"/>
</svg>  